
<svg width="900" height="220" xmlns="http://www.w3.org/2000/svg">
  <defs>
    <linearGradient id="bg" x1="0" y1="0" x2="1" y2="1">
      <stop offset="0%" stop-color="#0f172a"/>
      <stop offset="100%" stop-color="#1e293b"/>
    </linearGradient>
  </defs>

  <rect width="900" height="220" rx="20" fill="url(#bg)" />

  <text x="40" y="50" fill="#94a3b8" font-size="14">gsumithub</text>

  <text x="40" y="100" fill="#38bdf8" font-size="48" font-weight="bold">
    54
  </text>
  <text x="40" y="130" fill="#cbd5e1" font-size="16">
    Day Commit Streak
  </text>

  <text x="320" y="70" fill="#cbd5e1" font-size="14">
    327 Contributions This Year
  </text>
  <text x="320" y="95" fill="#cbd5e1" font-size="14">
    14 Public Repositories
  </text>
  <text x="320" y="120" fill="#cbd5e1" font-size="14">
    19 Total Stars
  </text>
  <text x="320" y="145" fill="#cbd5e1" font-size="14">
    4 Followers
  </text>

  <g transform="translate(40,170)">
    <rect width="8" height="1" x="0" y="29" rx="2" fill="#3b82f6"/><rect width="8" height="0" x="12" y="30" rx="2" fill="#3b82f6"/><rect width="8" height="2" x="24" y="28" rx="2" fill="#3b82f6"/><rect width="8" height="4" x="36" y="26" rx="2" fill="#3b82f6"/><rect width="8" height="20" x="48" y="10" rx="2" fill="#3b82f6"/><rect width="8" height="13" x="60" y="17" rx="2" fill="#3b82f6"/><rect width="8" height="13" x="72" y="17" rx="2" fill="#3b82f6"/><rect width="8" height="10" x="84" y="20" rx="2" fill="#3b82f6"/><rect width="8" height="2" x="96" y="28" rx="2" fill="#3b82f6"/><rect width="8" height="2" x="96" y="28" rx="2" fill="#3b82f6"/><rect width="8" height="2" x="96" y="28" rx="2" fill="#3b82f6"/><rect width="8" height="8" x="132" y="22" rx="2" fill="#3b82f6"/>
  </g>

  <g transform="translate(320,170)">
    <rect x="0" y="0" width="194.68222399759267" height="10" fill="#e34c26" rx="3"/><rect x="194.68222399759267" y="0" width="90.17374848746209" height="10" fill="#663399" rx="3"/><rect x="284.85597248505474" y="0" width="15.144027514945254" height="10" fill="#f1e05a" rx="3"/>
  </g>

</svg>
